<svg width="20" height="24" viewBox="0 0 20 24" fill="none" xmlns="http://www.w3.org/2000/svg">
<path d="M4.32322 5.99634C4.32322 8.97756 6.74787 11.4005 9.73093 11.4005C12.7142 11.4005 15.1386 8.97017 15.1386 5.98913C15.1386 3.00792 12.714 0.584998 9.73093 0.584998C6.74778 0.584998 4.32322 3.00801 4.32322 5.99634ZM5.96553 5.98913C5.96553 3.91833 7.65159 2.22634 9.73093 2.22634C11.8103 2.22634 13.4963 3.91833 13.4963 5.98913C13.4963 8.05982 11.8032 9.75193 9.73093 9.75193C7.65868 9.75193 5.96553 8.05982 5.96553 5.98913Z" fill="#A0A3B1" stroke="#A0A3B1" stroke-width="0.2"/>
<path d="M14.7543 23.6851H4.70733C2.10776 23.6851 0 21.3085 0 18.3774C0 15.4463 2.11654 13.0697 4.70733 13.0697H14.7543C17.3539 13.0697 19.4616 15.4562 19.4616 18.3774C19.4616 21.2986 17.3539 23.6851 14.7543 23.6851ZM4.70733 15.0502C3.0826 15.0502 1.75647 16.5455 1.75647 18.3774C1.75647 20.2094 3.0826 21.7046 4.70733 21.7046H14.7543C16.379 21.7046 17.7052 20.2094 17.7052 18.3774C17.7052 16.5455 16.379 15.0502 14.7543 15.0502H4.70733Z" fill="#A0A3B1"/>
</svg>
